<mxfile host="app.diagrams.net" modified="2021-07-13T02:20:37.220Z" agent="5.0 (Macintosh; Intel Mac OS X 10_15_6) AppleWebKit/537.36 (KHTML, like Gecko) Chrome/91.0.4472.114 Safari/537.36" etag="HN4d5iFBFru3a9FolGZh" version="14.8.2" type="github">
  <diagram id="6EKCFySIbUxqbvvuXCLm" name="Page-1">
    <mxGraphModel dx="894" dy="590" grid="1" gridSize="10" guides="1" tooltips="1" connect="1" arrows="1" fold="1" page="1" pageScale="1" pageWidth="827" pageHeight="1169" math="0" shadow="0">
      <root>
        <mxCell id="0" />
        <mxCell id="1" parent="0" />
        <mxCell id="HKh3L0LVhlrWyiQ0pp77-14" value="" style="rounded=0;whiteSpace=wrap;html=1;" vertex="1" parent="1">
          <mxGeometry x="10" y="50" width="710" height="550" as="geometry" />
        </mxCell>
        <mxCell id="HKh3L0LVhlrWyiQ0pp77-15" value="用户" style="rounded=0;whiteSpace=wrap;html=1;" vertex="1" parent="1">
          <mxGeometry x="120" y="500" width="180" height="60" as="geometry" />
        </mxCell>
        <mxCell id="HKh3L0LVhlrWyiQ0pp77-16" value="机构" style="rounded=0;whiteSpace=wrap;html=1;" vertex="1" parent="1">
          <mxGeometry x="20" y="500" width="80" height="60" as="geometry" />
        </mxCell>
        <mxCell id="HKh3L0LVhlrWyiQ0pp77-17" value="项目" style="rounded=0;whiteSpace=wrap;html=1;" vertex="1" parent="1">
          <mxGeometry x="430" y="500" width="220" height="60" as="geometry" />
        </mxCell>
        <mxCell id="HKh3L0LVhlrWyiQ0pp77-18" value="迭代" style="rounded=0;whiteSpace=wrap;html=1;" vertex="1" parent="1">
          <mxGeometry x="430" y="320" width="90" height="60" as="geometry" />
        </mxCell>
        <mxCell id="HKh3L0LVhlrWyiQ0pp77-19" value="前端" style="rounded=0;whiteSpace=wrap;html=1;" vertex="1" parent="1">
          <mxGeometry x="180" y="410" width="55" height="60" as="geometry" />
        </mxCell>
        <mxCell id="HKh3L0LVhlrWyiQ0pp77-20" value="产品" style="rounded=0;whiteSpace=wrap;html=1;" vertex="1" parent="1">
          <mxGeometry x="120" y="410" width="50" height="60" as="geometry" />
        </mxCell>
        <mxCell id="HKh3L0LVhlrWyiQ0pp77-21" value="后端" style="rounded=0;whiteSpace=wrap;html=1;" vertex="1" parent="1">
          <mxGeometry x="250" y="410" width="50" height="60" as="geometry" />
        </mxCell>
        <mxCell id="HKh3L0LVhlrWyiQ0pp77-26" value="模块" style="rounded=0;whiteSpace=wrap;html=1;" vertex="1" parent="1">
          <mxGeometry x="430" y="410" width="90" height="60" as="geometry" />
        </mxCell>
        <mxCell id="HKh3L0LVhlrWyiQ0pp77-27" value="api模块" style="rounded=0;whiteSpace=wrap;html=1;" vertex="1" parent="1">
          <mxGeometry x="540" y="410" width="60" height="60" as="geometry" />
        </mxCell>
        <mxCell id="HKh3L0LVhlrWyiQ0pp77-28" value="api记录" style="rounded=0;whiteSpace=wrap;html=1;" vertex="1" parent="1">
          <mxGeometry x="540" y="320" width="60" height="60" as="geometry" />
        </mxCell>
      </root>
    </mxGraphModel>
  </diagram>
</mxfile>
